# xmcd
#
# Track frame offsets: 
#        150
#        14030
#        30062
#        52632
#        73392
#        89300
#        105147
#        120225
#        134495
#        149967
#        164390
#        192385
#
# Disc length: 2809 seconds
#
# Revision: 1
# Processed by: cddbd v1.5.2PL0 Copyright (c) Steve Scherf et al.
# Submitted via: ExactAudioCopyFreeDBPlugin 1.0
#
DISCID=a00af70c
DTITLE=The Marshall Tucker Band - Gospel
DYEAR=1999
DGENRE=Country
TTITLE0=Heart and Soul
TTITLE1=Going Down the Road Feeling Bad
TTITLE2=Eye Is on the Sparrow
TTITLE3=Give Up
TTITLE4=Momma Don't Cry Anymore
TTITLE5=Singing with the Saints
TTITLE6=Though My Eyes Are Blind, My Heart Can See
TTITLE7=Only Believe
TTITLE8=Wayfaring Stranger
TTITLE9=He's Always There
TTITLE10=Will the Circle Be Unbroken
TTITLE11=Beauty of Life
EXTD=
EXTT0=
EXTT1=
EXTT2=
EXTT3=
EXTT4=
EXTT5=
EXTT6=
EXTT7=
EXTT8=
EXTT9=
EXTT10=
EXTT11=
PLAYORDER=
